<?xml version="1.0" encoding="UTF-8" standalone="no"?>
<svg
   xmlns:dc="http://purl.org/dc/elements/1.1/"
   xmlns:cc="http://creativecommons.org/ns#"
   xmlns:rdf="http://www.w3.org/1999/02/22-rdf-syntax-ns#"
   xmlns:svg="http://www.w3.org/2000/svg"
   xmlns="http://www.w3.org/2000/svg"
   viewBox="0 0 72 32.023201"
   height="32.023201"
   width="72"
   xml:space="preserve"
   id="svg2"
   version="1.1"><metadata
     id="metadata8"><rdf:RDF><cc:Work
         rdf:about=""><dc:format>image/svg+xml</dc:format><dc:type
           rdf:resource="http://purl.org/dc/dcmitype/StillImage" /><dc:title></dc:title></cc:Work></rdf:RDF></metadata><defs
     id="defs6"><clipPath
       id="clipPath18"
       clipPathUnits="userSpaceOnUse"><path
         id="path16"
         d="M 0,24.017 H 54 V 0 H 0 Z" /></clipPath></defs><g
     transform="matrix(1.3333333,0,0,-1.3333333,0,32.0232)"
     id="g10"><g
       id="g12"><g
         clip-path="url(#clipPath18)"
         id="g14"><g
           transform="translate(53,12.0086)"
           id="g20"><path
             id="path22"
             d="m 0,0 c 0,0.267 -0.11,0.522 -0.293,0.714 l -9.899,9.999 c -0.391,0.395 -1.024,0.394 -1.414,0 -0.391,-0.394 -0.391,-1.034 0,-1.428 L -3.413,1.01 H -51 c -0.552,0 -1,-0.452 -1,-1.01 0,-0.558 0.448,-1.01 1,-1.01 h 47.586 l -8.192,-8.275 c -0.391,-0.394 -0.39,-1.034 0,-1.428 0.391,-0.394 1.024,-0.394 1.414,0 l 9.899,9.999 C -0.106,-0.525 -0.003,-0.265 0,0" /></g><g
           transform="translate(53,12.0086)"
           id="g24"><path
             id="path26"
             d="m 0,0 c 0,0.267 -0.11,0.522 -0.293,0.714 l -9.899,9.999 c -0.391,0.395 -1.024,0.394 -1.414,0 -0.391,-0.394 -0.391,-1.034 0,-1.428 L -3.413,1.01 H -51 c -0.552,0 -1,-0.452 -1,-1.01 0,-0.558 0.448,-1.01 1,-1.01 h 47.586 l -8.192,-8.275 c -0.391,-0.394 -0.39,-1.034 0,-1.428 0.391,-0.394 1.024,-0.394 1.414,0 l 9.899,9.999 C -0.106,-0.525 -0.003,-0.265 0,0 Z" /></g></g></g></g></svg>
